<svg id="Layer_1" data-name="Layer 1" xmlns="http://www.w3.org/2000/svg" viewBox="0 0 1463 338"><defs><style>.cls-1{fill:#fefefe;}.cls-2{fill:#395baa;}.cls-3{fill:#e97428;}.cls-4{fill:#3a5baa;}.cls-5{fill:#385aaa;}.cls-6{fill:#d51807;}.cls-7{fill:#d41305;}.cls-8{fill:#da2307;}.cls-9{fill:#d51704;}.cls-10{fill:#050d69;}.cls-11{fill:#0e175a;}.cls-12{fill:#040d72;}.cls-13{fill:#cb0e01;}.cls-14{fill:#d41403;}.cls-15{fill:#da1e04;}.cls-16{fill:#010335;}.cls-17{fill:#02064a;}.cls-18{fill:#010120;}.cls-19{fill:#07105f;}.cls-20{fill:#c20000;}.cls-21{fill:#081776;}.cls-22{fill:#000132;}.cls-23{fill:#fdfefe;}.cls-24{fill:#fefdfc;}.cls-25{fill:#db350e;}</style></defs><path class="cls-1" d="M960.5,371.09q363.45,0,726.91-.09c3.74,0,4.59.84,4.59,4.59q-.18,164.66,0,329.32c0,3.42-.67,4.09-4.09,4.09q-727.41-.15-1454.82,0c-3.42,0-4.09-.67-4.09-4.09q.18-164.65,0-329.32c0-3.75.85-4.59,4.59-4.59Q597.05,371.15,960.5,371.09Zm380.55,106q4.38-21,8.77-42c-.59-1,3.53-3.21-1-3.21q-83.22.09-166.42.1c-12.14,0-24.28.18-36.41.28q-5.1,23.32-10.19,46.66a1.64,1.64,0,0,0-.42.26.82.82,0,0,0-.13.4c.62.33,1.25.9,1.88.9q22.69-.06,45.38-.26c8.81-.07,17.62-.24,26.42-.37.19.69.65,1.44.52,2.07q-7.21,34.25-14.53,68.49c-5.18,24.29-10.42,48.57-15.55,72.88-2.63,12.48-5.07,25-7.6,37.52-.12,1.81-3.43,4.77,1.58,4.78,15.66,0,31.33-.21,47,.07,5,.09,7-.69,8.11-6.37,5.42-28,11.66-55.85,17.54-83.77q7.21-34.25,14.25-68.54c1.75-8.61,3.07-17.31,4.59-26l1.2-1.15c2.31.13,4.63.35,7,.35,21.58,0,43.16-.1,64.74.16C1340.84,480.48,1341.3,479.59,1341.05,477.13ZM309,514l-.9-4c0-2-.07-4-.1-6l-.88-4-.12-6-.87-4c0-2-.09-4-.13-6l-.87-4c0-2-.09-4-.13-6l-.86-4-.14-6-.85-4-.15-6.95-.84-3-.16-7-.83-3a17.24,17.24,0,0,1,0-2.49c.66-4.27-.57-5.78-5.39-5.66-16,.39-32,.3-48-.05-2.84-.06-2.86.6-2.58,2.65,1,7.12,2,14.24,2.86,21.37,1.1,8.78,2,17.58,3.15,26.35,1.56,12,3.32,24,4.84,36,1.17,9.28,2,18.6,3.15,27.88,1.87,14.6,4,29.17,5.84,43.78,1.5,11.87,2.66,23.78,4.11,35.66,1.62,13.15,3.4,26.28,5.1,39.42.14.28.28.8.41.8,21.48,0,43,0,64.45-.11a4.58,4.58,0,0,0,3.13-2.22q22.49-40.44,44.77-81,23.14-42.07,46.2-84.2,17.61-32.07,35.3-64.09c.65-1.18,2.46-2.36-.83-2.33-19,.15-38,.25-56.95.14-2.94,0-4.28.88-5.61,3.42q-42.89,82.14-86,164.15c-.35.67-1.42,1-2.15,1.45v-7l-.78-3.08-.23-7.91-.75-2.1-.25-7.9-.95-3-.05-7-.68-2.12L313,553l-.95-3-.05-7c-.32-1-.63-2-.94-3l-.06-7-.92-3-.08-6-.92-4C309,518,309,516,309,514Zm1322.72-65c-13.94-.32-27.89-.69-41.84-.89-1.23,0-3.41.81-3.58,1.58-1.27,6-2.16,12.11-3.17,18.18-1.41,6.08-2.92,12.14-4.18,18.25-.71,3.38-1.33,6.68-5.78,6.49-7.16-.31-14.32-.81-21.48-1.12-.34,0-.91,1-1.06,1.65-2.78,11.91-5.43,23.85-8.31,35.74-.62,2.55-.62,3.42,2.48,3.25,5.8-.32,11.64-.11,17.46-.11,6.74,0,6.66,0,5.2,6.6-2.27,10.25-4.43,20.53-6.62,30.79s-4.41,20.25-6.46,30.41c-1.34,6.66-2.41,13.37-3.6,20.05a33.57,33.57,0,0,0-1.52,5.43c-1.11,10.12.45,19.66,7.82,27.24,10.33,10.61,24.08,11.19,37.62,12.12l8.19.31c8.43.26,16.86.36,25.28.82,4.44.24,6.37-1.3,5.56-5.79l7.35-35c.32-2.94.33-3-2.48-3.13-3.47-.12-7,.41-10.42-.12-7.49-1.18-16.14,0-20.35-8.83.91-6.95,1.53-13.94,2.79-20.82,2.29-12.45,5-24.83,7.46-37.25,1.6-6.75,3.42-13.45,4.67-20.27.45-2.5,1.37-2.71,3.45-2.69,10.65.1,21.31.13,32-.06,1.28,0,3.44-1.29,3.66-2.31,2.57-11.74,4.76-23.56,7.25-35.31.46-2.19,1-2.75-2-2.63-10.81.4-21.63.13-32.45.25-2.19,0-2.87-.24-2.31-2.71,2.38-10.59,4.51-21.24,6.75-31.87.59-2.83,1.22-5.66,1.83-8.5ZM646,591.83l126,0c.31-.29.85-.54.91-.87,2.62-14.9,4.38-29.83,2.09-45-2.82-18.75-11.36-34-27.16-44.8C735,492.41,720.34,489.1,705,488.16l-15.95,0L683,489a12,12,0,0,0-2,0c-33.79,5.47-59.24,22.8-75.07,53.39-12.45,24-17.23,49.37-10.8,76.07,2.5,10.38,6.72,20.09,14.88,27.55l0,0c5.67,4.63,10.74,10.44,17.13,13.67,18.76,9.48,38.92,10.58,59.64,8.47a103.69,103.69,0,0,0,53.16-21.06c2.26-1.7,4-4.07,6-6.13l5.15-5.89,4.84-2.85a26.37,26.37,0,0,0-4.13-2.7c-10.19-4.21-20.48-8.18-30.62-12.5-3.3-1.4-5.66-1.17-8.72.92-14.71,10-31.11,13.08-48,7.84C647.08,620.38,642.34,607.2,646,591.83ZM534,410c-15.57,13.12-10.6,42.84,8.72,51,11,4.65,22,3.8,31.48-3.81,9.74-7.84,14.44-18,12-31-2.25-11.87-9.17-19.66-20.51-22.8S543.13,401.06,534,410Zm878,78.18c-10.58,2.35-21.65,3.43-31.66,7.28-32.15,12.35-50.83,36.81-59.13,69.68a113.48,113.48,0,0,0-3,40.68c1.69,14.94,7.46,28.45,17.88,39.52,7.71,8.21,16.68,14.72,27.9,17.49a106.32,106.32,0,0,0,44.31,5.88c2.6-.25,5.22-.36,7.79-.75,14.74-2.28,29.25-5.73,41.62-14.39,22.25-15.57,36.93-36.48,42.19-63.49,1.06-7.82,2.58-15.61,3.07-23.46.77-12.3-1.92-24.17-6.05-35.72a9.91,9.91,0,0,0-.46-1.84c-13.77-28.75-38.79-38.75-68.44-41l-9.19.36v-.1l-1.44-.05-3.17.58ZM950,644.94c4.9-5.38,9.84-10.73,14.63-16.22.31-.36-.31-2.35-.87-2.55q-19.66-7.23-39.46-14.11a4.12,4.12,0,0,0-3.63.9,37.75,37.75,0,0,1-28.16,14.62c-16.51,1.06-30.28-2.59-32.72-20.14-3.77-27,2.29-51.64,23.43-70.64,9.65-8.67,21.77-9.09,33.8-7.47,9.54,1.29,14.76,8.19,17.75,16.79.85,2.45,1.62,1.87,3.52,1.16,10.44-3.92,21-7.52,31.48-11.31,4.1-1.49,8.13-3.17,12.2-4.76-2.06-4.1-3.86-8.36-6.21-12.29-10.36-17.29-25.55-27.34-45.63-29.87l-5-.1c-1-.35-2-1-3-1-8.63.21-17.32,0-25.86,1-31.57,3.69-56.18,19.16-73.28,45.8-14,21.78-20.17,45.85-17.94,71.83,1.33,15.57,6.81,29.37,17.83,40.74,14.3,14.75,32.36,20.77,52.26,21.49a142.84,142.84,0,0,0,29.57-2C921.67,663.77,937.23,657.07,950,644.94ZM525.86,492v-.16c-14.16,0-28.31,0-42.47.07-1.12,0-3,.81-3.22,1.56-2.83,11.84-5.48,23.73-8.07,35.63-.44,2-.39,3.32,2.88,3.17,9.47-.46,19,0,28.47-.26,3.35-.1,4.14,1.12,3.54,3.95q-5.53,26.28-11.13,52.55c-5.25,24.48-10.44,49-16,73.4-.74,3.23,0,3.11,2.45,3.13,16.15.16,32.31.28,48.45.78,3.08.1,3.72-1.38,4.19-3.45.84-3.66,1.37-7.39,2.14-11.07Q545.2,612.6,553.38,574c5.59-26.51,11.12-53,16.91-79.5.54-2.51.4-2.59-1.95-2.57C554.18,492,540,492,525.86,492Z" transform="translate(-229 -371)"/><path class="cls-2" d="M1414.14,488.79c1.06-.19,2.12-.38,3.14-.58.47.06,1,.1,1.46.15l9.19-.36c1,.64,1.91,1.66,3,1.86,3.08.57,6.27.58,9.34,1.21,23.27,4.78,42.81,15,54,37.33.51,1,1.73,1.67,2.62,2.49,4.13,11.55,6.82,23.42,6.05,35.72-.49,7.85-2,15.64-3.07,23.46-.71,1.1-1.77,2.12-2.07,3.33-4.49,17.62-13.27,32.76-25.66,46-14.39,15.38-32.55,23-52.84,26.54-3.72.65-7.35,1.82-11,2.75a106.32,106.32,0,0,1-44.31-5.88,20.73,20.73,0,0,0-3.75-2.73,64.19,64.19,0,0,1-32.24-30c-9.37-18-9.65-37-6.18-56.35,3.68-20.56,11.19-39.5,25.88-54.64,17.5-18,39.44-27.16,64.36-29.33Zm29,111.05,3.64-10.92,3-28.88c2-8.29-.35-15.82-5.47-22-9.58-11.56-22.89-13.2-36.37-10.19-18.81,4.2-28.75,17.8-33.6,35.67-.12.42.48,1,.74,1.55a21,21,0,0,0-1.08,3.19c-2.32,13.1-4.42,26.23-2,39.57.26,8.35,8.81,19.07,17.4,20.93,21.16,4.6,36.94-2.93,49.6-18.69.64-.8.6-2.15.88-3.25.07-.33.15-.66.22-1l.77-1c0-.29-.06-.57-.1-.86l2.09-3.14Z" transform="translate(-229 -371)"/><path class="cls-3" d="M751.05,635.06,745.9,641a35.55,35.55,0,0,0-5.06,2.94,102.34,102.34,0,0,1-30.11,17.29c-17.7,6.37-36,7.86-54.46,5.52-14.15-1.79-27.6-6-39-15.18-2.37-1.92-4.88-3.68-7.33-5.52l0,0c-.62-1.45-1-3.13-1.89-4.32a65.26,65.26,0,0,1-13.83-36.77c-1.87-27.44,5-52.82,21.46-75C633.67,505.76,658.08,492.74,688,490c10.9.68,21.92.58,32.67,2.26a60.58,60.58,0,0,1,35.52,18.68c12.73,13.64,18.21,30.34,17.65,48.79-.31,10.39-1.93,20.74-3,31.11-2.17,0-4.33.14-6.49.14L646.06,591c-1,.8-2.67,1.44-2.88,2.41a29.74,29.74,0,0,0,23.94,35.46c16.65,2.92,32.34.63,46.63-9a7.36,7.36,0,0,1,5.83-.81c10.1,3.75,20.1,7.81,30,12C750.49,631.46,750.59,633.69,751.05,635.06ZM649.27,559.23l-.13,1.41c1,.46,1.9,1.33,2.85,1.33q37.72.1,75.46,0c1.18,0,3.28-1.05,3.4-1.84,1-6.7-1.17-22.12-9-27.18a49.61,49.61,0,0,0-27.71-8.12c-18.71-.1-37.09,13.4-44.57,29.6C649,555.77,649.35,557.61,649.27,559.23Z" transform="translate(-229 -371)"/><path class="cls-4" d="M1266.05,479.94l-1.2,1.15a24.47,24.47,0,0,0-1.6,4q-12.69,60.2-25.28,120.39c-3.78,18-7.51,36.08-11.32,54.12-.46,2.18-.66,4.38-4.13,4.34-15.49-.19-31,0-46.49-.2-.82,0-1.61-1.79-2.42-2.75.46-2.1,1-4.2,1.39-6.3q12.07-57.32,24.15-114.63,5.94-28.17,12-56.31c.48-2.24,1.27-4.44-2.27-4.61l-70.81-.25c2.42-11.6,4.74-23.21,7.28-34.78,2-9.23,2.16-9.2,11.27-10.38a4.49,4.49,0,0,0,1.31-.66h184.87a22.13,22.13,0,0,1,4.47.13c.66.14,1.12,1.23,1.67,1.89q-4.42,21-8.86,42c-1.62.65-3.24,1.87-4.86,1.88-21.36.12-42.73.06-64.09.12A30.34,30.34,0,0,0,1266.05,479.94Z" transform="translate(-229 -371)"/><path class="cls-5" d="M1602.84,665l-8.18-.31c-.53-.53-1-1.45-1.61-1.53-3.93-.54-7.89-.84-11.83-1.32-24.53-3-33.14-19.14-29.68-38.37.2-1.1-.52-2.37-.81-3.57,1.19-6.68,2.26-13.39,3.6-20.05,2.05-10.16,4.29-20.27,6.46-30.41s4.35-20.54,6.62-30.79c1.46-6.62,1.54-6.6-5.2-6.6-5.82,0-11.66-.21-17.46.11-3.1.17-3.1-.7-2.48-3.25,2.88-11.89,5.53-23.83,8.31-35.74.15-.62.72-1.66,1.06-1.65,7.16.31,14.32.81,21.48,1.12,4.45.19,5.07-3.11,5.78-6.49,1.26-6.11,2.77-12.17,4.18-18.25.74-1.32,1.81-2.55,2.18-4,1.15-4.32.67-10.41,3.4-12.61,2.93-2.36,8.78-1.09,13.36-1.4,10.66,0,21.31.17,32,0,3.65,0,5.35.16,4.19,4.81-2.68,10.77-4.5,21.74-6.93,32.58-.91,4.08-.17,5.85,4.41,5.74,9.48-.22,19,0,28.47-.11,2.68,0,3.79.24,3,3.55-2.37,10.17-4.33,20.43-6.36,30.68-.54,2.73-1.79,3.79-4.72,3.74-10-.18-20,0-30-.12-3.06,0-4.58,1-5.13,4-1.09,5.87-2.41,11.7-3.52,17.57-.15.75.37,1.64.58,2.46-2.51,12.42-5.17,24.8-7.46,37.25-1.26,6.88-1.88,13.87-2.79,20.82-1.66,3.93,1,6.22,3.82,7.07a147.73,147.73,0,0,0,17.74,3.83c3.85.66,7.79.8,11.69,1.18l-7.35,35c-2,4.86-6.3,3.78-10.12,3.81-5.42,0-10.84-.07-16.26.06A21.37,21.37,0,0,0,1602.84,665Z" transform="translate(-229 -371)"/><path class="cls-3" d="M925.14,489l5,.1c1,.67,1.81,1.75,2.85,2,20.66,4.36,35.09,16.54,44.65,35.05,1.69,3.29,1.45,4.81-2.35,6.08q-16.77,5.64-33.3,12c-3.84,1.49-5.93,1.34-7.42-2.89-2.72-7.75-8.49-11.9-16.55-13.38-20.55-3.77-36.61,2.92-48,20.4-11.3,17.31-14.5,36.66-12.75,56.79.93,10.63,5.73,20,17.06,22.85,17.4,4.4,33.65,2.66,46.43-11.95.86-1,3-1.83,4.17-1.44,11.31,3.91,22.5,8.15,33.78,12.16,3.21,1.15,3.31,2.61,1.21,4.94-3.67,4.06-7.27,8.19-10.9,12.29-5.16,3.6-10.09,7.63-15.54,10.74C910.75,667.61,886,670.33,861,665.47c-32.49-6.34-52-28.58-54.81-61.15-1.44-16.74,1.93-33.05,8-48.7,7.67-19.72,20.06-36,37.43-48,21.15-14.68,44.88-19.89,70.39-17.78C923.06,489.9,924.11,489.26,925.14,489Z" transform="translate(-229 -371)"/><path class="cls-6" d="M316.94,601c.73-.48,1.8-.78,2.15-1.45q43.11-82,86-164.15c1.33-2.54,2.67-3.44,5.61-3.42,19,.11,38,0,56.95-.14,3.29,0,1.48,1.15.83,2.33q-17.67,32-35.3,64.09-23.13,42.09-46.2,84.2-22.31,40.53-44.77,81a4.58,4.58,0,0,1-3.13,2.22c-21.48.14-43,.13-64.45.11-.13,0-.27-.52-.41-.8l1.86-1c19.65,0,39.3-.09,58.95.08,3.46,0,5.46-1.06,7.09-4.05q29.48-54.09,59.13-108.08c11.77-21.42,23.66-42.77,35.46-64.17q14-25.32,27.91-50.68c1.16-2.1,2.26-4-1.79-3.91-16.79.34-33.59.65-50.38.75-3.48,0-5.42,1.25-7,4.31Q380.36,486.65,355,535.06q-17.31,33.18-34.76,66.28a15.47,15.47,0,0,1-2.39,2.76L316,601l.11-.09A5.16,5.16,0,0,0,316.94,601Z" transform="translate(-229 -371)"/><path class="cls-7" d="M525.86,492c14.16,0,28.32.06,42.48-.06,2.35,0,2.49.06,1.95,2.57-5.79,26.47-11.32,53-16.91,79.5q-8.16,38.64-16.29,77.29c-.77,3.68-1.3,7.41-2.14,11.07-.47,2.07-1.11,3.55-4.19,3.45-16.14-.5-32.3-.62-48.45-.78-2.43,0-3.19.1-2.45-3.13,5.56-24.41,10.75-48.92,16-73.4q5.63-26.26,11.13-52.55c.6-2.83-.19-4-3.54-3.95-9.49.27-19-.2-28.47.26-3.27.15-3.32-1.13-2.88-3.17,2.59-11.9,5.24-23.79,8.07-35.63.18-.75,2.1-1.55,3.22-1.56,14.16-.1,28.31-.07,42.47-.07ZM506.47,663.89c7.16,0,14.33-.14,21.48.07,3.32.1,4.64-1.09,5.29-4.34,3-14.8,6.18-29.54,9.3-44.31,8.22-38.94,16.36-77.89,24.79-116.79.93-4.29-.38-4.71-4-4.7q-30.47.15-60.94,0c-5.81,0-11.62-.66-17.42-.54a5.27,5.27,0,0,0-3.78,3.17c-2.52,9.78-4.71,19.65-7,29.5-.77,3.35-.13,5.21,4.09,5.07,8.82-.3,17.65,0,26.47-.11,3.16,0,4.61.68,3.65,4.37-1.57,6.08-2.59,12.3-3.9,18.45q-11.43,53.41-23,106.8c-.68,3.11.46,3.4,2.9,3.39C491.82,663.85,499.15,663.89,506.47,663.89Z" transform="translate(-229 -371)"/><path class="cls-8" d="M949,643.93c3.63-4.1,7.23-8.23,10.9-12.29,2.1-2.33,2-3.79-1.21-4.94-11.28-4-22.47-8.25-33.78-12.16-1.12-.39-3.31.45-4.17,1.44-12.78,14.61-29,16.35-46.43,11.95-11.33-2.86-16.13-12.22-17.06-22.85C855.48,585,858.68,565.6,870,548.29c11.41-17.48,27.47-24.17,48-20.4,8.06,1.48,13.83,5.63,16.55,13.38,1.49,4.23,3.58,4.38,7.42,2.89q16.5-6.4,33.3-12c3.8-1.27,4-2.79,2.35-6.08-9.56-18.51-24-30.69-44.65-35.05-1-.22-1.9-1.3-2.85-2,20.08,2.53,35.27,12.58,45.63,29.87,2.35,3.93,4.15,8.19,6.21,12.29-4.07,1.59-8.1,3.27-12.2,4.76-10.49,3.79-21,7.39-31.48,11.31-1.9.71-2.67,1.29-3.52-1.16-3-8.6-8.21-15.5-17.75-16.79-12-1.62-24.15-1.2-33.8,7.47-21.14,19-27.2,43.61-23.43,70.64,2.44,17.55,16.21,21.2,32.72,20.14A37.75,37.75,0,0,0,920.66,613a4.12,4.12,0,0,1,3.63-.9q19.8,6.86,39.46,14.11c.56.2,1.18,2.19.87,2.55-4.79,5.49-9.73,10.84-14.63,16.22Z" transform="translate(-229 -371)"/><path class="cls-9" d="M949,643.93l1,1c-12.76,12.13-28.32,18.83-45.32,21.83a142.84,142.84,0,0,1-29.57,2c-19.9-.72-38-6.74-52.26-21.49-11-11.37-16.5-25.17-17.83-40.74-2.23-26,4-50,17.94-71.83,17.1-26.64,41.71-42.11,73.28-45.8,8.54-1,17.23-.75,25.86-1,1,0,2,.64,3,1-1,.31-2.08.95-3.08.87-25.51-2.11-49.24,3.1-70.39,17.78-17.37,12.06-29.76,28.3-37.43,48-6.1,15.65-9.47,32-8,48.7,2.79,32.57,22.32,54.81,54.81,61.15,25,4.86,49.73,2.14,72.42-10.8C938.89,651.56,943.82,647.53,949,643.93Z" transform="translate(-229 -371)"/><path class="cls-10" d="M1412,489.79c-24.92,2.17-46.86,11.3-64.36,29.33-14.69,15.14-22.2,34.08-25.88,54.64-3.47,19.39-3.19,38.39,6.18,56.35a64.19,64.19,0,0,0,32.24,30,20.73,20.73,0,0,1,3.75,2.73c-11.22-2.77-20.19-9.28-27.9-17.49-10.42-11.07-16.19-24.58-17.88-39.52a113.48,113.48,0,0,1,3-40.68c8.3-32.87,27-57.33,59.13-69.68,10-3.85,21.08-4.93,31.66-7.28Z" transform="translate(-229 -371)"/><path class="cls-11" d="M1173.61,661c.81,1,1.6,2.74,2.42,2.75,15.5.16,31,0,46.49.2,3.47,0,3.67-2.16,4.13-4.34,3.81-18,7.54-36.08,11.32-54.12q12.62-60.19,25.28-120.39a24.47,24.47,0,0,1,1.6-4c-1.52,8.66-2.84,17.36-4.59,26q-7,34.3-14.25,68.54c-5.88,27.92-12.12,55.77-17.54,83.77-1.1,5.68-3.15,6.46-8.11,6.37-15.65-.28-31.32,0-47-.07-5,0-1.7-3-1.58-4.78Z" transform="translate(-229 -371)"/><path class="cls-12" d="M1173.61,661l-1.81-.11c2.53-12.51,5-25,7.6-37.52,5.13-24.31,10.37-48.59,15.55-72.88q7.3-34.25,14.53-68.49c.13-.63-.33-1.38-.52-2.07a4.09,4.09,0,0,0,0-.78c3.54.17,2.75,2.37,2.27,4.61q-6.06,28.14-12,56.31Q1187,597.39,1175,654.7C1174.56,656.8,1174.07,658.9,1173.61,661Z" transform="translate(-229 -371)"/><path class="cls-13" d="M276.11,663.89l-1.86,1c-1.7-13.14-3.48-26.27-5.1-39.42-1.45-11.88-2.61-23.79-4.11-35.66-1.84-14.61-4-29.18-5.84-43.78-1.18-9.28-2-18.6-3.15-27.88-1.52-12-3.28-24-4.84-36-1.13-8.77-2.05-17.57-3.15-26.35-.89-7.13-1.89-14.25-2.86-21.37-.28-2.05-.26-2.71,2.58-2.65,16,.35,32,.44,48,.05,4.82-.12,6,1.39,5.39,5.66a17.24,17.24,0,0,0,0,2.49l-3-7c-15.33,0-30.65.2-46-.09-5-.1-5.43,1.82-4.74,5.92,1.14,6.85,1.88,13.77,2.74,20.66,1.81,14.46,3.56,28.92,5.36,43.37q2.8,22.41,5.65,44.82c1.78,14.28,3.51,28.57,5.3,42.86q2.82,22.39,5.71,44.79C273.38,644.91,274.78,654.4,276.11,663.89Z" transform="translate(-229 -371)"/><path class="cls-14" d="M688,490c-29.93,2.75-54.34,15.77-72.28,39.92-16.49,22.2-23.33,47.58-21.46,75A65.26,65.26,0,0,0,608.1,641.7c.94,1.19,1.27,2.87,1.89,4.32-8.16-7.46-12.38-17.17-14.88-27.55-6.43-26.7-1.65-52,10.8-76.07C621.74,511.81,647.19,494.48,681,489a12,12,0,0,1,2,0Z" transform="translate(-229 -371)"/><path class="cls-7" d="M534,410c9.16-8.94,20.28-9.75,31.69-6.6s18.26,10.93,20.51,22.8c2.46,12.92-2.24,23.12-12,31-9.46,7.61-20.43,8.46-31.48,3.81-19.32-8.14-24.29-37.86-8.72-51-.51,1.3-.73,2.83-1.56,3.88-9.47,12.08-7.6,31.21,4.09,40.87,10.39,8.6,23.64,9.61,34.12,2.61,11.75-7.86,16.72-21.28,12.67-34.23-5.68-18.16-27-25.32-44.49-15A33.07,33.07,0,0,1,534,410Z" transform="translate(-229 -371)"/><path class="cls-8" d="M688,490l-5-1,6.1-.82,15.95,0c15.32.94,30,4.25,42.85,13.06,15.8,10.8,24.34,26,27.16,44.8,2.29,15.15.53,30.08-2.09,45-.06.33-.6.58-.91.87l-1.13-1c1-10.37,2.64-20.72,3-31.11.56-18.45-4.92-35.15-17.65-48.79a60.58,60.58,0,0,0-35.52-18.68C709.93,490.57,698.91,490.67,688,490Z" transform="translate(-229 -371)"/><path class="cls-15" d="M751.05,635.06c-.46-1.37-.56-3.6-1.45-4-9.92-4.22-19.92-8.28-30-12a7.36,7.36,0,0,0-5.83.81c-14.29,9.68-30,12-46.63,9a29.74,29.74,0,0,1-23.94-35.46c.21-1,1.89-1.61,2.88-2.41,0,.26,0,.52,0,.79-3.69,15.37,1.05,28.55,18.4,33.94,16.88,5.24,33.28,2.19,48-7.84,3.06-2.09,5.42-2.32,8.72-.92,10.14,4.32,20.43,8.29,30.62,12.5a26.37,26.37,0,0,1,4.13,2.7Z" transform="translate(-229 -371)"/><path class="cls-16" d="M1618,555c-.21-.82-.73-1.71-.58-2.46,1.11-5.87,2.43-11.7,3.52-17.57.55-3,2.07-4.08,5.13-4,10,.14,20-.06,30,.12,2.93,0,4.18-1,4.72-3.74,2-10.25,4-20.51,6.36-30.68.77-3.31-.34-3.58-3-3.55-9.49.1-19-.11-28.47.11-4.58.11-5.32-1.66-4.41-5.74,2.43-10.84,4.25-21.81,6.93-32.58,1.16-4.65-.54-4.85-4.19-4.81-10.66.12-21.31,0-32,0a34,34,0,0,1,4.76-.72c8.3-.12,16.59-.13,24.89-.18l9.12-.22c-.61,2.84-1.24,5.67-1.83,8.5-2.24,10.63-4.37,21.28-6.75,31.87-.56,2.47.12,2.73,2.31,2.71,10.82-.12,21.64.15,32.45-.25,3.08-.12,2.51.44,2,2.63-2.49,11.75-4.68,23.57-7.25,35.31-.22,1-2.38,2.29-3.66,2.31-10.65.19-21.31.16-32,.06-2.08,0-3,.19-3.45,2.69C1621.45,541.5,1619.63,548.2,1618,555Z" transform="translate(-229 -371)"/><path class="cls-14" d="M610,646c2.45,1.84,5,3.6,7.33,5.52,11.37,9.23,24.82,13.39,39,15.18,18.5,2.34,36.76.85,54.46-5.52a102.34,102.34,0,0,0,30.11-17.29A35.55,35.55,0,0,1,745.9,641c-2,2.06-3.74,4.43-6,6.13a103.69,103.69,0,0,1-53.16,21.06c-20.72,2.11-40.88,1-59.64-8.47C620.71,656.44,615.64,650.63,610,646Z" transform="translate(-229 -371)"/><path class="cls-6" d="M298.08,433.07l3,7c.28,1,.55,2,.83,3l.16,7,.84,3,.15,6.95c.29,1.35.57,2.69.85,4,.05,2,.09,4,.14,6,.29,1.34.57,2.69.86,4,0,2,.09,4,.13,6l.87,4,.13,6,.87,4,.12,6c.29,1.35.58,2.69.88,4l.1,6,.9,4c0,2,.05,4,.08,6l.92,4,.08,6c.3,1,.61,2,.92,3l.06,7,.94,3c0,2.32,0,4.63.05,7l.95,3c.1,2.63.2,5.25.31,7.88l.68,2.12.05,7,.95,3q.13,4,.25,7.9l.75,2.1c.08,2.64.15,5.28.23,7.91L317,594c-.27,2.3-.53,4.6-.8,6.9L316,601c-1.61-14.29-3.35-28.57-4.81-42.87-1.55-15.18-2.79-30.4-4.27-45.58q-2.82-29-5.86-57.92C300.33,447.41,299.1,440.25,298.08,433.07Z" transform="translate(-229 -371)"/><path class="cls-17" d="M1408.21,668.7c3.68-.93,7.31-2.1,11-2.75,20.29-3.55,38.45-11.16,52.84-26.54,12.39-13.25,21.17-28.39,25.66-46,.3-1.21,1.36-2.23,2.07-3.33-5.26,27-19.94,47.92-42.19,63.49-12.37,8.66-26.88,12.11-41.62,14.39C1413.43,668.34,1410.81,668.45,1408.21,668.7Z" transform="translate(-229 -371)"/><path class="cls-18" d="M1349,435.09c-.55-.66-1-1.75-1.67-1.89a22.13,22.13,0,0,0-4.47-.13H1158l-11.94-.74c12.13-.1,24.27-.27,36.41-.28q83.21-.07,166.42-.1c4.5,0,.38,2.23,1,3.21Z" transform="translate(-229 -371)"/><path class="cls-19" d="M1496.83,530.89c-.89-.82-2.11-1.48-2.62-2.49-11.15-22.35-30.69-32.55-54-37.33-3.07-.63-6.26-.64-9.34-1.21-1.07-.2-2-1.22-3-1.86,29.65,2.3,54.67,12.3,68.44,41A9.91,9.91,0,0,1,1496.83,530.89Z" transform="translate(-229 -371)"/><path class="cls-17" d="M1550.73,619.94c.29,1.2,1,2.47.81,3.57-3.46,19.23,5.15,35.38,29.68,38.37,3.94.48,7.9.78,11.83,1.32.6.08,1.08,1,1.61,1.53-13.55-.93-27.3-1.51-37.63-12.12-7.37-7.58-8.93-17.12-7.82-27.24A33.57,33.57,0,0,1,1550.73,619.94Z" transform="translate(-229 -371)"/><path class="cls-20" d="M646,591.83c0-.27,0-.53,0-.79L764.41,591c2.16,0,4.32-.09,6.49-.14l1.13,1Z" transform="translate(-229 -371)"/><path class="cls-21" d="M1146,432.34l11.94.74a4.49,4.49,0,0,1-1.31.66c-9.11,1.18-9.23,1.15-11.27,10.38-2.54,11.57-4.86,23.18-7.28,34.78l-2.27.1Q1140.93,455.67,1146,432.34Z" transform="translate(-229 -371)"/><path class="cls-21" d="M1631.67,449.07c-8.3.05-16.59.06-24.89.18a34,34,0,0,0-4.76.72c-4.58.31-10.43-1-13.36,1.4-2.73,2.2-2.25,8.29-3.4,12.61-.37,1.41-1.44,2.64-2.18,4,1-6.07,1.9-12.17,3.17-18.18.17-.77,2.35-1.6,3.58-1.58C1603.78,448.38,1617.73,448.75,1631.67,449.07Z" transform="translate(-229 -371)"/><path class="cls-12" d="M1641,625.1c-3.9-.38-7.84-.52-11.69-1.18a147.73,147.73,0,0,1-17.74-3.83c-2.79-.85-5.48-3.14-3.82-7.07,4.21,8.82,12.86,7.65,20.35,8.83,3.39.53,6.95,0,10.42.12C1641.36,622.06,1641.35,622.16,1641,625.1Z" transform="translate(-229 -371)"/><path class="cls-22" d="M1266.05,479.94a30.34,30.34,0,0,1,5.11-.87c21.36-.06,42.73,0,64.09-.12,1.62,0,3.24-1.23,4.86-1.88.31,0,.63,0,.94.06.25,2.46-.21,3.35-3.31,3.32-21.58-.26-43.16-.13-64.74-.16C1270.68,480.29,1268.36,480.07,1266.05,479.94Z" transform="translate(-229 -371)"/><path class="cls-22" d="M1135.83,479l2.27-.1,70.81.25a4.09,4.09,0,0,1,0,.78c-8.8.13-17.61.3-26.42.37q-22.68.19-45.38.26c-.63,0-1.26-.57-1.88-.9a.82.82,0,0,1,.13-.4A1.64,1.64,0,0,1,1135.83,479Z" transform="translate(-229 -371)"/><path class="cls-17" d="M1341.05,477.13c-.31,0-.63-.05-.94-.06q4.42-21,8.86-42l.85.08Q1345.44,456.16,1341.05,477.13Z" transform="translate(-229 -371)"/><path class="cls-12" d="M1602.84,665a21.37,21.37,0,0,1,4.46-1.1c5.42-.13,10.84,0,16.26-.06,3.82,0,8.1,1,10.12-3.81.81,4.49-1.12,6-5.56,5.79C1619.7,665.4,1611.27,665.3,1602.84,665Z" transform="translate(-229 -371)"/><path class="cls-14" d="M705,488.16l-15.95,0Z" transform="translate(-229 -371)"/><path class="cls-19" d="M1418.74,488.36c-.49-.05-1-.09-1.46-.15l1.47.05Z" transform="translate(-229 -371)"/><path class="cls-13" d="M316.17,590.92c-.08-2.63-.15-5.27-.23-7.91C316,585.65,316.09,588.29,316.17,590.92Z" transform="translate(-229 -371)"/><path class="cls-13" d="M313.26,560.9c-.11-2.63-.21-5.25-.31-7.88C313.05,555.65,313.15,558.27,313.26,560.9Z" transform="translate(-229 -371)"/><path class="cls-13" d="M315.19,580.91q-.12-3.95-.25-7.9Q315.07,577,315.19,580.91Z" transform="translate(-229 -371)"/><path class="cls-13" d="M303.1,460l-.15-6.95Z" transform="translate(-229 -371)"/><path class="cls-13" d="M302.11,450c-.05-2.32-.11-4.64-.16-7C302,445.4,302.06,447.72,302.11,450Z" transform="translate(-229 -371)"/><path class="cls-13" d="M311,540l-.06-7Z" transform="translate(-229 -371)"/><path class="cls-13" d="M312,550c0-2.32,0-4.63-.05-7C312,545.35,312,547.66,312,550Z" transform="translate(-229 -371)"/><path class="cls-13" d="M314,570l-.05-7Z" transform="translate(-229 -371)"/><path class="cls-13" d="M316.15,600.9c.27-2.3.53-4.6.8-6.9v7A5.16,5.16,0,0,1,316.15,600.9Z" transform="translate(-229 -371)"/><path class="cls-13" d="M304.09,470c0-2-.09-4-.14-6Z" transform="translate(-229 -371)"/><path class="cls-13" d="M308.05,510l-.1-6C308,506,308,508,308.05,510Z" transform="translate(-229 -371)"/><path class="cls-13" d="M307.07,500l-.12-6Z" transform="translate(-229 -371)"/><path class="cls-13" d="M310,530l-.08-6Q310,527,310,530Z" transform="translate(-229 -371)"/><path class="cls-13" d="M306.08,490l-.13-6Z" transform="translate(-229 -371)"/><path class="cls-13" d="M309,520l-.08-6Z" transform="translate(-229 -371)"/><path class="cls-13" d="M305.08,480c0-2-.09-4-.13-6C305,476.05,305,478,305.08,480Z" transform="translate(-229 -371)"/><path class="cls-19" d="M1412,489.79l0-1.62,2.2.62Z" transform="translate(-229 -371)"/><path class="cls-23" d="M1372,607.83c-2.43-13.34-.33-26.47,2-39.57a21,21,0,0,1,1.08-3.19c1.27-2.92,2.88-5.74,3.76-8.77,5.14-17.75,27.85-32.27,46.92-27.14,10.61,2.85,19.34,7.5,21.29,19.71.61,3.77,1.81,7.45,2.73,11.17l-3,28.88q-1.82,5.46-3.64,10.92l-.27,1c-.69,1-1.39,2.1-2.09,3.15,0,.29.07.57.1.86l-.77,1c-.07.33-.15.66-.22,1-.65.36-1.53.55-1.92,1.09-10.12,13.86-23.56,21-40.88,20-7.62-.44-14.38-2.94-18.76-9.74C1376.15,614.77,1374.11,611.28,1372,607.83Z" transform="translate(-229 -371)"/><path class="cls-19" d="M1449.78,560c-.92-3.72-2.12-7.4-2.73-11.17-2-12.21-10.68-16.86-21.29-19.71-19.07-5.13-41.78,9.39-46.92,27.14-.88,3-2.49,5.85-3.76,8.77-.26-.52-.86-1.13-.74-1.55,4.85-17.87,14.79-31.47,33.6-35.67,13.48-3,26.79-1.37,36.37,10.19C1449.43,544.22,1451.8,551.75,1449.78,560Z" transform="translate(-229 -371)"/><path class="cls-12" d="M1372,607.83c2.1,3.45,4.14,6.94,6.32,10.33,4.38,6.8,11.14,9.3,18.76,9.74,17.32,1,30.76-6.13,40.88-20,.39-.54,1.27-.73,1.92-1.09-.28,1.1-.24,2.45-.88,3.25-12.66,15.76-28.44,23.29-49.6,18.69C1380.82,626.9,1372.27,616.18,1372,607.83Z" transform="translate(-229 -371)"/><path class="cls-12" d="M1443.14,599.84q1.81-5.46,3.64-10.92Q1445,594.38,1443.14,599.84Z" transform="translate(-229 -371)"/><path class="cls-12" d="M1440.78,604c.7-1,1.4-2.1,2.09-3.15C1442.18,601.91,1441.48,603,1440.78,604Z" transform="translate(-229 -371)"/><path class="cls-12" d="M1440.11,605.83l.77-1Z" transform="translate(-229 -371)"/><path class="cls-24" d="M649.14,560.64c0-.47.09-.94.13-1.41a25.62,25.62,0,0,0,1.75-2.92c8.75-20.3,32.2-33.7,53.13-29.31,16.19,3.39,25.53,13.57,25.76,30,0,1.15-1.3,2.32-2,3.48a14.43,14.43,0,0,0-2.42-.42q-35.7,0-71.42,0a13.21,13.21,0,0,0-3.19.8Z" transform="translate(-229 -371)"/><path class="cls-9" d="M649.14,560.64l1.75.28q37.32,0,74.64.07a12,12,0,0,0,2.39-.47c.69-1.16,2-2.33,2-3.48-.23-16.47-9.57-26.65-25.76-30-20.93-4.39-44.38,9-53.13,29.31a25.62,25.62,0,0,1-1.75,2.92c.08-1.62-.32-3.46.31-4.82,7.48-16.2,25.86-29.7,44.57-29.6a49.61,49.61,0,0,1,27.71,8.12c7.82,5.06,10,20.48,9,27.18-.12.79-2.22,1.83-3.4,1.84q-37.73.15-75.46,0C651,562,650.09,561.1,649.14,560.64Z" transform="translate(-229 -371)"/><path class="cls-3" d="M298.08,433.07c1,7.18,2.25,14.34,3,21.55q3.09,29,5.86,57.92c1.48,15.18,2.72,30.4,4.27,45.58,1.46,14.3,3.2,28.58,4.81,42.87l1.84,3.11a15.47,15.47,0,0,0,2.39-2.76Q337.7,568.23,355,535.06q25.29-48.42,50.45-96.92c1.58-3.06,3.52-4.28,7-4.31,16.79-.1,33.59-.41,50.38-.75,4.05-.08,2.95,1.81,1.79,3.91q-13.95,25.35-27.91,50.68c-11.8,21.4-23.69,42.75-35.46,64.17q-29.64,54-59.13,108.08c-1.63,3-3.63,4.08-7.09,4.05-19.65-.17-39.3-.08-58.95-.08-1.33-9.49-2.73-19-4-28.49q-2.92-22.38-5.71-44.79c-1.79-14.29-3.52-28.58-5.3-42.86q-2.81-22.41-5.65-44.82c-1.8-14.45-3.55-28.91-5.36-43.37-.86-6.89-1.6-13.81-2.74-20.66-.69-4.1-.22-6,4.74-5.92C267.43,433.27,282.75,433.07,298.08,433.07Z" transform="translate(-229 -371)"/><path class="cls-3" d="M506.47,663.89c-7.32,0-14.65,0-22,0-2.44,0-3.58-.28-2.9-3.39q11.64-53.37,23-106.8c1.31-6.15,2.33-12.37,3.9-18.45,1-3.69-.49-4.4-3.65-4.37-8.82.07-17.65-.19-26.47.11-4.22.14-4.86-1.72-4.09-5.07,2.24-9.85,4.43-19.72,7-29.5a5.27,5.27,0,0,1,3.78-3.17c5.8-.12,11.61.52,17.42.54q30.46.15,60.94,0c3.59,0,4.9.41,4,4.7-8.43,38.9-16.57,77.85-24.79,116.79-3.12,14.77-6.35,29.51-9.3,44.31-.65,3.25-2,4.44-5.29,4.34C520.8,663.75,513.63,663.89,506.47,663.89Z" transform="translate(-229 -371)"/><path class="cls-3" d="M534,410a33.07,33.07,0,0,0,4.85-1.92c17.53-10.28,38.81-3.12,44.49,15,4.05,12.95-.92,26.37-12.67,34.23-10.48,7-23.73,6-34.12-2.61-11.69-9.66-13.56-28.79-4.09-40.87.83-1.05,1.05-2.58,1.56-3.88Z" transform="translate(-229 -371)"/><path class="cls-25" d="M727.92,560.52a12,12,0,0,1-2.39.47q-37.32,0-74.64-.07a13.21,13.21,0,0,1,3.19-.8q35.71-.07,71.42,0A14.43,14.43,0,0,1,727.92,560.52Z" transform="translate(-229 -371)"/></svg>
